<svg id="ProgressBar" xmlns="http://www.w3.org/2000/svg" viewBox="0 0 9.13 571.81"><defs><style>.cls-1{fill:#fff;}</style></defs><circle id="aa" class="cls-1" cx="4.57" cy="4.57" r="4.57"/><circle class="cls-1" cx="4.57" cy="84.95" r="4.57"/><circle class="cls-1" cx="4.57" cy="31.36" r="4.57"/><circle class="cls-1" cx="4.57" cy="58.15" r="4.57"/><circle class="cls-1" cx="4.57" cy="111.74" r="4.57"/><circle class="cls-1" cx="4.57" cy="138.54" r="4.57"/><circle class="cls-1" cx="4.57" cy="165.33" r="4.57"/><circle class="cls-1" cx="4.57" cy="192.13" r="4.57"/><circle class="cls-1" cx="4.57" cy="218.92" r="4.57"/><circle class="cls-1" cx="4.57" cy="245.71" r="4.57"/><circle class="cls-1" cx="4.57" cy="272.51" r="4.57"/><circle class="cls-1" cx="4.57" cy="299.3" r="4.57"/><circle class="cls-1" cx="4.57" cy="326.1" r="4.57"/><circle class="cls-1" cx="4.57" cy="352.89" r="4.57"/><circle class="cls-1" cx="4.57" cy="379.68" r="4.57"/><circle class="cls-1" cx="4.57" cy="406.48" r="4.57"/><circle class="cls-1" cx="4.57" cy="433.27" r="4.57"/><circle class="cls-1" cx="4.57" cy="460.07" r="4.57"/><circle class="cls-1" cx="4.57" cy="486.86" r="4.57"/><circle class="cls-1" cx="4.57" cy="513.65" r="4.57"/><circle class="cls-1" cx="4.57" cy="540.45" r="4.57"/><circle class="cls-1" cx="4.57" cy="567.24" r="4.57"/></svg>