<?xml version="1.0" encoding="UTF-8" standalone="no"?>
<!-- Created with Inkscape (http://www.inkscape.org/) -->

<svg
   version="1.1"
   id="svg2"
   width="1920"
   height="1080"
   viewBox="0 0 1920 1080"
   sodipodi:docname="Screenshot_2.svg"
   inkscape:export-filename="C:\Users\Oscar\Desktop\path1422.png"
   inkscape:export-xdpi="0.050000001"
   inkscape:export-ydpi="0.050000001"
   inkscape:version="1.1 (c68e22c387, 2021-05-23)"
   xmlns:inkscape="http://www.inkscape.org/namespaces/inkscape"
   xmlns:sodipodi="http://sodipodi.sourceforge.net/DTD/sodipodi-0.dtd"
   xmlns="http://www.w3.org/2000/svg"
   xmlns:svg="http://www.w3.org/2000/svg">
  <defs
     id="defs6" />
  <sodipodi:namedview
     id="namedview4"
     pagecolor="#ffffff"
     bordercolor="#666666"
     borderopacity="1.0"
     inkscape:pageshadow="2"
     inkscape:pageopacity="0.0"
     inkscape:pagecheckerboard="0"
     showgrid="false"
     inkscape:zoom="0.41358381"
     inkscape:cx="727.78477"
     inkscape:cy="633.48708"
     inkscape:window-width="1920"
     inkscape:window-height="1017"
     inkscape:window-x="-8"
     inkscape:window-y="-8"
     inkscape:window-maximized="1"
     inkscape:current-layer="g8" />
  <g
     inkscape:groupmode="layer"
     inkscape:label="Image"
     id="g8"
     style="display:inline" />
  <g
     inkscape:groupmode="layer"
     id="layer1"
     inkscape:label="Traços">
    <path
       style="fill:none;stroke:#bfbfbf;stroke-width:1.5;stroke-linecap:butt;stroke-linejoin:miter;stroke-miterlimit:4;stroke-dasharray:none;stroke-opacity:1"
       d="m -23.177373,210.88053 c 0,0 365.675803,109.37087 374.224333,270.08325 8.54853,160.71238 -267.271359,237.1128 -267.271359,237.1128 0,0 -88.9047194,44.45236 -90.6144256,179.51915"
       id="path894"
       sodipodi:nodetypes="cscc" />
    <path
       style="fill:none;stroke:#bfbfbf;stroke-width:1.5;stroke-linecap:butt;stroke-linejoin:miter;stroke-miterlimit:4;stroke-dasharray:none;stroke-opacity:1"
       d="m 754.41252,-14.528185 c 0,0 -14.86827,276.892585 171.4897,341.861415 186.35798,64.96883 260.61808,-19.70562 379.82728,46.03193 119.2093,65.73755 168.5527,224.41941 286.5224,393.68032 117.9697,169.26091 304.4197,95.29564 436.0671,61.10151"
       id="path1240"
       sodipodi:nodetypes="cszsc" />
    <path
       style="fill:none;stroke:#bfbfbf;stroke-width:1.5;stroke-linecap:butt;stroke-linejoin:miter;stroke-miterlimit:4;stroke-dasharray:none;stroke-opacity:1"
       d="M 1343.921,-24.664916 C 1001.6448,102.51119 1138.6643,234.22974 1138.6643,234.22974 c 35.6159,34.27223 133.3571,61.54942 290.65,-46.16207 157.293,-107.711481 499.3557,-22.51951 499.3557,-22.51951"
       id="path1422"
       sodipodi:nodetypes="cssc" />
    <path
       style="fill:none;stroke:#bfbfbf;stroke-width:1.5;stroke-linecap:butt;stroke-linejoin:miter;stroke-miterlimit:4;stroke-dasharray:none;stroke-dashoffset:0;stroke-opacity:1"
       d="m -38.686234,-31.432565 c 0,0 606.090094,250.559655 702.805674,453.662385 96.71559,203.10273 222.75645,145.19637 210.667,350.95851 C 862.87379,975.9414 416.7484,1092.6431 416.7484,1092.6431"
       id="path2113"
       sodipodi:nodetypes="cssc" />
  </g>
</svg>
