<?xml version="1.0" encoding="UTF-8" standalone="no"?>
<svg
   data-name="Layer 1"
   width="300"
   height="300"
   viewBox="0 0 299.99999 299.99999"
   version="1.1"
   id="svg12"
   sodipodi:docname="undraw_handcrafts_menu.svg"
   inkscape:version="1.1 (c68e22c387, 2021-05-23)"
   xmlns:inkscape="http://www.inkscape.org/namespaces/inkscape"
   xmlns:sodipodi="http://sodipodi.sourceforge.net/DTD/sodipodi-0.dtd"
   xmlns="http://www.w3.org/2000/svg"
   xmlns:svg="http://www.w3.org/2000/svg">
  <defs
     id="defs16" />
  <sodipodi:namedview
     id="namedview14"
     pagecolor="#ffffff"
     bordercolor="#666666"
     borderopacity="1.0"
     inkscape:pageshadow="2"
     inkscape:pageopacity="0.0"
     inkscape:pagecheckerboard="0"
     showgrid="false"
     inkscape:zoom="2.439992"
     inkscape:cx="111.88561"
     inkscape:cy="149.59066"
     inkscape:window-width="1920"
     inkscape:window-height="1017"
     inkscape:window-x="-8"
     inkscape:window-y="-8"
     inkscape:window-maximized="1"
     inkscape:current-layer="svg12" />
  <g
     id="g952"
     transform="matrix(0.84447644,0,0,0.84447644,49.858184,48.315389)">
    <path
       d="m 546.89261,493.61977 c -8.47373,-13.35225 -6.2304,-46.91423 -3.77126,-62.13238 3.36606,-19.88253 7.21988,-30.39563 15.72,-45.89863 a 66.68114,66.68114 0 0 1 25.5848,-28.01359 c -14.17024,2.76054 -26.58491,10.74241 -35.93643,21.62277 -9.14634,9.89013 -16.83395,21.19254 -21.40712,33.92529 a 107.64017,107.64017 0 0 0 -3.61253,65.213 c 3.6875,13.63255 12.37552,25.38022 23.66048,33.75107 a 65.81724,65.81724 0 0 0 17.70627,10.50217 q 6.23965,2.54844 12.66416,4.611 c -1.02681,-0.75517 -2.50041,-1.96622 -3.26408,-2.52758 -12.43952,-9.15339 -20.37966,-17.69905 -27.34429,-31.05312 z"
       fill="#a0fff0"
       id="path2"
       transform="translate(-481.4155,-329.5886)" />
    <path
       d="m 715.31074,404.71779 c -8.82491,-30.74635 -36.49369,-59.91772 -73.80417,-57.86606 -1.44051,-0.0105 -2.88315,0.0361 -4.32306,0.0419 q 5.84174,0.87643 11.60213,2.20145 c 16.6221,3.75624 28.30649,11.99945 38.36643,24.56846 13.37441,16.48247 20.22157,42.0046 18.13424,59.87644 -0.31384,4.29211 -2.94963,15.75433 -5.91929,24.71886 -0.72572,2.84825 -6.43953,17.12336 -4.945,13.53193 -3.91089,10.261 -17.91753,31.11376 -20.45649,34.37268 -24.21835,30.42841 -59.86886,46.463 -93.337,49.38262 -24.63569,0.74044 -36.67642,-2.37992 -51.94541,-17.838 -12.57675,-13.59157 -21.55312,-27.54464 -26.02491,-46.31582 -1.47087,-6.138 -2.57114,-23.08773 -1.28906,-36.56624 0.10714,-0.84182 0.17938,-1.41138 0.224,-1.76635 0.24555,-1.82508 0.57973,-4.45176 0.7843,-6.09943 4.307,-23.721 11.87865,-48.04818 20.2249,-63.34039 8.65585,-14.63038 19.58872,-24.06613 36.61875,-34.13108 18.832,-9.10992 41.849,-14.23489 63.15691,-19.90013 -22.76477,1.74677 -45.96055,3.08363 -67.87971,9.903 -18.008,6.88328 -35.46142,17.30061 -46.67869,33.34738 -9.36427,13.13174 -14.72539,28.676 -19.50738,43.94562 -7.36224,25.45293 -9.133,52.5954 -3.839,78.62654 7.36952,27.63676 27.57682,57.35781 54.39908,68.92353 23.44224,12.23483 69.0671,4.614 97.98731,-10.59794 12.99864,-6.74244 24.5422,-15.86769 35.37127,-25.65613 31.05825,-30.53008 55.42623,-83.53296 43.07985,-123.36282 z"
       transform="translate(-481.4155,-329.5886)"
       id="path4" />
    <path
       d="m 551.60146,416.09335 a 353.89753,353.89753 0 0 0 45.17716,-0.0665 c 14.7357,-1.59182 29.45107,-3.3565 44.23989,-4.40669 -29.61467,-6.40519 -60.13626,-1.43945 -89.41705,4.47316 z"
       transform="translate(-481.4155,-329.5886)"
       id="path6" />
    <path
       d="m 554.223,460.65634 c 34.35295,-0.20412 63.07709,-5.37993 96.67639,-13.77551 -32.81988,-2.16396 -65.52683,3.66382 -96.67639,13.77551 z"
       transform="translate(-481.4155,-329.5886)"
       id="path8" />
    <path
       d="m 554.223,502.5978 c 35.54215,1.47057 71.345,-2.2837 105.00383,-14.19285 -28.87409,-1.58742 -72.35396,5.79379 -105.00383,14.19285 z"
       transform="translate(-481.4155,-329.5886)"
       id="path10" />
  </g>
</svg>
